<svg width="128" height="128" viewBox="0 0 128 128" fill="none" xmlns="http://www.w3.org/2000/svg">
<path d="M42.3661 31.7441L79.6121 96.2561H67.7963L53.3118 71.1681L53.3055 71.1718L42.3661 52.2241L22.8563 86.0161H53.6074L59.5195 96.2561H5.12012L42.3661 31.7441Z" fill="#F0F0F0"/>
<path d="M86.6119 96.2561H90.4941C108.309 96.2561 122.75 81.8146 122.75 64.0001C122.75 46.1856 108.309 31.7441 90.4941 31.7441H49.3659L55.2779 41.9841H90.4941C102.653 41.9841 112.51 51.841 112.51 64.0001C112.51 76.1592 102.653 86.0161 90.4941 86.0161H80.6998L86.6119 96.2561Z" fill="#F0F0F0"/>
<path d="M42.3661 31.7441L79.6121 96.2561H67.7963L53.3118 71.1681L53.3055 71.1718L42.3661 52.2241L22.8563 86.0161H53.6074L59.5195 96.2561H5.12012L42.3661 31.7441Z" stroke="#F0F0F0"/>
<path d="M86.6119 96.2561H90.4941C108.309 96.2561 122.75 81.8146 122.75 64.0001C122.75 46.1856 108.309 31.7441 90.4941 31.7441H49.3659L55.2779 41.9841H90.4941C102.653 41.9841 112.51 51.841 112.51 64.0001C112.51 76.1592 102.653 86.0161 90.4941 86.0161H80.6998L86.6119 96.2561Z" stroke="#F0F0F0"/>
</svg>
