<svg width="24" height="24" viewBox="0 0 24 24" fill="none" xmlns="http://www.w3.org/2000/svg">
<path fill-rule="evenodd" clip-rule="evenodd" d="M4 0C1.79086 0 0 1.79086 0 4V20C0 22.2091 1.79086 24 4 24H20C22.2091 24 24 22.2091 24 20V4C24 1.79086 22.2091 0 20 0H4ZM8.41484 12.0023C8.41484 10.0148 10.018 8.41172 12.0055 8.41172C13.993 8.41172 15.5961 10.0148 15.5961 12.0023C15.5961 13.9898 13.993 15.593 12.0055 15.593C10.018 15.593 8.41484 13.9898 8.41484 12.0023ZM9.67109 12.0023C9.67109 13.2898 10.7211 14.3367 12.0055 14.3367C13.2898 14.3367 14.3398 13.2898 14.3398 12.0023C14.3398 10.7148 13.293 9.66797 12.0055 9.66797C10.718 9.66797 9.67109 10.7148 9.67109 12.0023ZM15.743 9.10234C16.2055 9.10234 16.5805 8.73047 16.5805 8.26484C16.5805 7.80234 16.2055 7.42734 15.743 7.42734C15.2805 7.42734 14.9055 7.80234 14.9055 8.26484C14.9055 8.72734 15.2773 9.10234 15.743 9.10234ZM17.8273 6.18047C18.6492 6.99922 18.9055 7.99297 18.9586 9.11484C19.0242 10.2711 19.0242 13.7336 18.9586 14.8898C18.9023 16.0117 18.6461 17.0055 17.8273 17.8242C17.0086 18.6461 16.0148 18.9023 14.893 18.9555C13.7367 19.0211 10.2711 19.0211 9.11484 18.9555C7.99297 18.8992 7.00234 18.643 6.18047 17.8242C5.35859 17.0055 5.10234 16.0117 5.04922 14.8898C4.98359 13.7336 4.98359 10.268 5.04922 9.11172C5.10547 7.98984 5.35859 6.99609 6.18047 6.17734C7.00234 5.35859 7.99609 5.10234 9.11484 5.04922C10.2711 4.98359 13.7367 4.98359 14.893 5.04922C16.0148 5.10547 17.0086 5.36172 17.8273 6.18047ZM16.1336 17.4617C16.7492 17.2148 17.2211 16.743 17.4648 16.1305C17.7785 15.3424 17.761 13.6187 17.7497 12.5013C17.7478 12.316 17.7461 12.1473 17.7461 12.0023C17.7461 11.8574 17.7478 11.6887 17.7497 11.5034C17.761 10.3866 17.7784 8.66491 17.4648 7.87422C17.218 7.25859 16.7461 6.78672 16.1336 6.54297C15.3431 6.23107 13.611 6.24768 12.4939 6.2584C12.3127 6.26014 12.1477 6.26172 12.0055 6.26172C11.8605 6.26172 11.6919 6.26001 11.5066 6.25813C10.3898 6.24682 8.66803 6.22937 7.87734 6.54297C7.26172 6.78984 6.78984 7.26172 6.54609 7.87422C6.23419 8.66473 6.25081 10.3968 6.26152 11.5139C6.26326 11.6951 6.26484 11.8601 6.26484 12.0023C6.26484 12.1473 6.26314 12.316 6.26126 12.5012C6.24994 13.618 6.2325 15.3398 6.54609 16.1305C6.79297 16.7461 7.26484 17.218 7.87734 17.4617C8.66785 17.7736 10.4 17.757 11.517 17.7463C11.6982 17.7446 11.8633 17.743 12.0055 17.743C12.1504 17.743 12.3191 17.7447 12.5044 17.7466C13.6212 17.7579 15.3429 17.7753 16.1336 17.4617Z" fill="#000014"/>
</svg>
