<svg width="24" height="24" viewBox="0 0 24 24" fill="none" xmlns="http://www.w3.org/2000/svg">
<path d="M8.13438 19H5.23125V9.65312H8.13438V19ZM6.68125 8.37812C5.75312 8.37812 5 7.60938 5 6.68125C5 6.23535 5.17713 5.80772 5.49243 5.49243C5.80772 5.17713 6.23535 5 6.68125 5C7.12715 5 7.55478 5.17713 7.87007 5.49243C8.18537 5.80772 8.3625 6.23535 8.3625 6.68125C8.3625 7.60938 7.60938 8.37812 6.68125 8.37812ZM18.9969 19H16.1V14.45C16.1 13.3656 16.0781 11.975 14.5906 11.975C13.0812 11.975 12.85 13.1531 12.85 14.3719V19H9.95V9.65312H12.7344V10.9281H12.775C13.1625 10.1937 14.1094 9.41875 15.5219 9.41875C18.4594 9.41875 19 11.3531 19 13.8656V19H18.9969Z" fill="#000014"/>
</svg>
