<svg width="20" height="20" viewBox="0 0 20 20" fill="none" xmlns="http://www.w3.org/2000/svg">
<path d="M9.75 2C5.47662 2 2 5.47662 2 9.75C2 14.0234 5.47662 17.5 9.75 17.5C14.0234 17.5 17.5 14.0234 17.5 9.75C17.5 5.47662 14.0234 2 9.75 2ZM14.8741 5.57394C15.796 6.70037 16.3543 8.13509 16.3689 9.69753C16.1507 9.65137 13.9621 9.20747 11.7595 9.48447C11.5797 9.04569 11.4101 8.65969 11.1777 8.18403C13.6252 7.18475 14.7345 5.76272 14.8741 5.57394ZM14.1382 4.80844C14.0191 4.97803 13.0226 6.31738 10.6687 7.19966C9.584 5.20666 8.38172 3.56941 8.19875 3.32441C10.298 2.81837 12.5102 3.36409 14.1382 4.80844ZM6.93566 3.76938C7.11019 4.00872 8.29309 5.648 9.38994 7.59778C6.29347 8.42006 3.56619 8.40822 3.27013 8.40431C3.69938 6.35016 5.08369 4.64291 6.93566 3.76938ZM3.13031 9.76009C3.13031 9.69241 3.13166 9.62503 3.13369 9.55781C3.42331 9.56375 6.63119 9.60509 9.937 8.61575C10.1265 8.98662 10.3075 9.36309 10.4737 9.73916C8.07997 10.4134 5.90513 12.3494 4.83209 14.1862C3.77481 13.0127 3.13031 11.4603 3.13031 9.76009ZM5.68678 14.9824C6.37825 13.5688 8.25484 11.7442 10.9236 10.8337C11.853 13.2488 12.2373 15.2729 12.3358 15.8537C10.2073 16.7603 7.64781 16.5116 5.68678 14.9824ZM13.4487 15.2477C13.3808 14.845 13.0285 12.9071 12.1627 10.5279C14.237 10.1958 16.0595 10.7394 16.286 10.8108C15.9909 12.6527 14.9337 14.2435 13.4487 15.2477Z" fill="#F0F0F0"/>
</svg>
