<svg width="24" height="24" viewBox="0 0 24 24" fill="none" xmlns="http://www.w3.org/2000/svg">
<path fill-rule="evenodd" clip-rule="evenodd" d="M4 0C1.79086 0 0 1.79086 0 4V20C0 22.2091 1.79086 24 4 24H20C22.2091 24 24 22.2091 24 20V4C24 1.79086 22.2091 0 20 0H4ZM5.23125 19H8.13437V9.65312H5.23125V19ZM5 6.68125C5 7.60938 5.75313 8.37813 6.68125 8.37813C7.60938 8.37813 8.3625 7.60938 8.3625 6.68125C8.3625 6.23535 8.18537 5.80772 7.87007 5.49243C7.55478 5.17713 7.12715 5 6.68125 5C6.23535 5 5.80772 5.17713 5.49243 5.49243C5.17713 5.80772 5 6.23535 5 6.68125ZM16.1 19H18.9969H19V13.8656C19 11.3531 18.4594 9.41875 15.5219 9.41875C14.1094 9.41875 13.1625 10.1938 12.775 10.9281H12.7344V9.65312H9.95V19H12.85V14.3719C12.85 13.1531 13.0813 11.975 14.5906 11.975C16.0781 11.975 16.1 13.3656 16.1 14.45V19Z" fill="#000014"/>
</svg>
