<svg width="24" height="24" viewBox="0 0 24 24" fill="none" xmlns="http://www.w3.org/2000/svg">
<path fill-rule="evenodd" clip-rule="evenodd" d="M4 0C1.79086 0 0 1.79086 0 4V20C0 22.2091 1.79086 24 4 24H20C22.2091 24 24 22.2091 24 20V4C24 1.79086 22.2091 0 20 0H4ZM9.81008 19V13.184H8V10.5098H9.81008V9.35859C9.81008 6.38086 11.1622 5 14.0939 5C14.6479 5 15.6078 5.10938 16 5.21602V7.64141C15.7916 7.61953 15.4323 7.60859 14.9853 7.60859C13.5482 7.60859 12.9914 8.15 12.9914 9.56367V10.5098H15.8574L15.3637 13.184H12.9914V19H9.81008Z" fill="#000014"/>
</svg>
