<svg width="20" height="20" viewBox="0 0 20 20" fill="none" xmlns="http://www.w3.org/2000/svg">
<path d="M10.0055 6.41172C8.01797 6.41172 6.41484 8.01484 6.41484 10.0023C6.41484 11.9898 8.01797 13.593 10.0055 13.593C11.993 13.593 13.5961 11.9898 13.5961 10.0023C13.5961 8.01484 11.993 6.41172 10.0055 6.41172ZM10.0055 12.3367C8.72109 12.3367 7.67109 11.2898 7.67109 10.0023C7.67109 8.71484 8.71797 7.66797 10.0055 7.66797C11.293 7.66797 12.3398 8.71484 12.3398 10.0023C12.3398 11.2898 11.2898 12.3367 10.0055 12.3367ZM14.5805 6.26484C14.5805 6.73047 14.2055 7.10234 13.743 7.10234C13.2773 7.10234 12.9055 6.72734 12.9055 6.26484C12.9055 5.80234 13.2805 5.42734 13.743 5.42734C14.2055 5.42734 14.5805 5.80234 14.5805 6.26484ZM16.9586 7.11484C16.9055 5.99297 16.6492 4.99922 15.8273 4.18047C15.0086 3.36172 14.0148 3.10547 12.893 3.04922C11.7367 2.98359 8.27109 2.98359 7.11484 3.04922C5.99609 3.10234 5.00234 3.35859 4.18047 4.17734C3.35859 4.99609 3.10547 5.98984 3.04922 7.11172C2.98359 8.26797 2.98359 11.7336 3.04922 12.8898C3.10234 14.0117 3.35859 15.0055 4.18047 15.8242C5.00234 16.643 5.99297 16.8992 7.11484 16.9555C8.27109 17.0211 11.7367 17.0211 12.893 16.9555C14.0148 16.9023 15.0086 16.6461 15.8273 15.8242C16.6461 15.0055 16.9023 14.0117 16.9586 12.8898C17.0242 11.7336 17.0242 8.27109 16.9586 7.11484ZM15.4648 14.1305C15.2211 14.743 14.7492 15.2148 14.1336 15.4617C13.2117 15.8273 11.0242 15.743 10.0055 15.743C8.98672 15.743 6.79609 15.8242 5.87734 15.4617C5.26484 15.218 4.79297 14.7461 4.54609 14.1305C4.18047 13.2086 4.26484 11.0211 4.26484 10.0023C4.26484 8.98359 4.18359 6.79297 4.54609 5.87422C4.78984 5.26172 5.26172 4.78984 5.87734 4.54297C6.79922 4.17734 8.98672 4.26172 10.0055 4.26172C11.0242 4.26172 13.2148 4.18047 14.1336 4.54297C14.7461 4.78672 15.218 5.25859 15.4648 5.87422C15.8305 6.79609 15.7461 8.98359 15.7461 10.0023C15.7461 11.0211 15.8305 13.2117 15.4648 14.1305Z" fill="#F0F0F0"/>
</svg>
