<svg width="32" height="32" viewBox="0 0 32 32" fill="none" xmlns="http://www.w3.org/2000/svg">
<path d="M28.1177 8.29011C28.1177 10.6574 26.1998 12.5749 23.832 12.5749C22.6052 12.5749 21.4962 12.0607 20.7195 11.2359L12.6302 15.2796C12.673 15.5153 12.6891 15.7563 12.6891 16.0027C12.6891 16.2491 12.6677 16.4901 12.6302 16.7257L20.7195 20.7695C21.5016 19.9447 22.6052 19.4305 23.832 19.4305C26.1998 19.4305 28.1177 21.3479 28.1177 23.7152C28.1177 26.0826 26.1998 28 23.832 28C21.4641 28 19.5462 26.0826 19.5462 23.7152C19.5462 23.1957 19.6373 22.6976 19.8087 22.2316L12.0034 18.3325C11.2373 19.5108 9.9141 20.2874 8.40339 20.2874C6.03553 20.2874 4.11768 18.37 4.11768 16.0027C4.11768 13.6353 6.03553 11.7179 8.40339 11.7179C9.9141 11.7179 11.2373 12.4945 12.0034 13.6728L19.8087 9.76836C19.6373 9.30774 19.5462 8.80964 19.5462 8.28476C19.5462 5.91743 21.4641 4 23.832 4C26.1998 4 28.1177 5.91743 28.1177 8.28476V8.29011ZM8.40339 18.5735C9.08538 18.5735 9.73943 18.3027 10.2217 17.8205C10.7039 17.3384 10.9748 16.6845 10.9748 16.0027C10.9748 15.3208 10.7039 14.6669 10.2217 14.1848C9.73943 13.7027 9.08538 13.4318 8.40339 13.4318C7.7214 13.4318 7.06735 13.7027 6.58512 14.1848C6.10288 14.6669 5.83196 15.3208 5.83196 16.0027C5.83196 16.6845 6.10288 17.3384 6.58512 17.8205C7.06735 18.3027 7.7214 18.5735 8.40339 18.5735ZM26.4034 8.29011C26.4034 7.60828 26.1325 6.95437 25.6502 6.47224C25.168 5.99012 24.5139 5.71926 23.832 5.71926C23.15 5.71926 22.4959 5.99012 22.0137 6.47224C21.5315 6.95437 21.2605 7.60828 21.2605 8.29011C21.2605 8.97195 21.5315 9.62585 22.0137 10.108C22.4959 10.5901 23.15 10.861 23.832 10.861C24.5139 10.861 25.168 10.5901 25.6502 10.108C26.1325 9.62585 26.4034 8.97195 26.4034 8.29011ZM23.832 26.2861C24.1696 26.2861 24.504 26.2196 24.816 26.0904C25.128 25.9612 25.4115 25.7718 25.6502 25.5331C25.889 25.2944 26.0784 25.011 26.2077 24.6991C26.3369 24.3872 26.4034 24.0529 26.4034 23.7152C26.4034 23.3776 26.3369 23.0433 26.2077 22.7314C26.0784 22.4195 25.889 22.1361 25.6502 21.8974C25.4115 21.6586 25.128 21.4693 24.816 21.3401C24.504 21.2109 24.1696 21.1444 23.832 21.1444C23.4943 21.1444 23.1599 21.2109 22.8479 21.3401C22.5359 21.4693 22.2525 21.6586 22.0137 21.8974C21.7749 22.1361 21.5855 22.4195 21.4563 22.7314C21.327 23.0433 21.2605 23.3776 21.2605 23.7152C21.2605 24.0529 21.327 24.3872 21.4563 24.6991C21.5855 25.011 21.7749 25.2944 22.0137 25.5331C22.2525 25.7718 22.5359 25.9612 22.8479 26.0904C23.1599 26.2196 23.4943 26.2861 23.832 26.2861Z" fill="white"/>
</svg>
