<svg width="24" height="24" viewBox="0 0 24 24" fill="none" xmlns="http://www.w3.org/2000/svg">
<path d="M12.0055 8.41172C10.018 8.41172 8.41484 10.0148 8.41484 12.0023C8.41484 13.9898 10.018 15.593 12.0055 15.593C13.993 15.593 15.5961 13.9898 15.5961 12.0023C15.5961 10.0148 13.993 8.41172 12.0055 8.41172ZM12.0055 14.3367C10.7211 14.3367 9.67109 13.2898 9.67109 12.0023C9.67109 10.7148 10.718 9.66797 12.0055 9.66797C13.293 9.66797 14.3398 10.7148 14.3398 12.0023C14.3398 13.2898 13.2898 14.3367 12.0055 14.3367ZM16.5805 8.26484C16.5805 8.73047 16.2055 9.10234 15.743 9.10234C15.2773 9.10234 14.9055 8.72734 14.9055 8.26484C14.9055 7.80234 15.2805 7.42734 15.743 7.42734C16.2055 7.42734 16.5805 7.80234 16.5805 8.26484ZM18.9586 9.11484C18.9055 7.99297 18.6492 6.99922 17.8273 6.18047C17.0086 5.36172 16.0148 5.10547 14.893 5.04922C13.7367 4.98359 10.2711 4.98359 9.11484 5.04922C7.99609 5.10234 7.00234 5.35859 6.18047 6.17734C5.35859 6.99609 5.10547 7.98984 5.04922 9.11172C4.98359 10.268 4.98359 13.7336 5.04922 14.8898C5.10234 16.0117 5.35859 17.0055 6.18047 17.8242C7.00234 18.643 7.99297 18.8992 9.11484 18.9555C10.2711 19.0211 13.7367 19.0211 14.893 18.9555C16.0148 18.9023 17.0086 18.6461 17.8273 17.8242C18.6461 17.0055 18.9023 16.0117 18.9586 14.8898C19.0242 13.7336 19.0242 10.2711 18.9586 9.11484ZM17.4648 16.1305C17.2211 16.743 16.7492 17.2148 16.1336 17.4617C15.2117 17.8273 13.0242 17.743 12.0055 17.743C10.9867 17.743 8.79609 17.8242 7.87734 17.4617C7.26484 17.218 6.79297 16.7461 6.54609 16.1305C6.18047 15.2086 6.26484 13.0211 6.26484 12.0023C6.26484 10.9836 6.18359 8.79297 6.54609 7.87422C6.78984 7.26172 7.26172 6.78984 7.87734 6.54297C8.79922 6.17734 10.9867 6.26172 12.0055 6.26172C13.0242 6.26172 15.2148 6.18047 16.1336 6.54297C16.7461 6.78672 17.218 7.25859 17.4648 7.87422C17.8305 8.79609 17.7461 10.9836 17.7461 12.0023C17.7461 13.0211 17.8305 15.2117 17.4648 16.1305Z" fill="#000014"/>
</svg>
