<svg width="164" height="164" viewBox="0 0 164 164" fill="none" xmlns="http://www.w3.org/2000/svg">
<path d="M5.35827e-05 93.1781L0.226889 141.509C0.228811 142.131 0.574831 142.699 1.12462 142.994L40.0499 163.207C40.3037 163.342 40.5805 163.409 40.8592 163.409C40.8612 163.409 40.8612 163.409 40.8631 163.409C40.9803 163.539 41.1111 163.663 41.2687 163.756C41.5378 163.916 41.8396 163.996 42.1433 163.996C42.424 163.996 42.7027 163.929 42.9565 163.794L81.3878 143.124C81.7395 142.935 81.9933 142.626 82.1413 142.276C82.297 142.571 82.5316 142.832 82.841 142.998L121.764 163.211C122.018 163.346 122.297 163.413 122.576 163.413C122.578 163.413 122.578 163.413 122.58 163.413C122.699 163.542 122.827 163.666 122.983 163.76C123.256 163.92 123.558 164 123.86 164C124.14 164 124.417 163.933 124.671 163.798L163.102 143.122C163.654 142.829 164 142.253 164 141.629V91.3422C164 91.3269 163.992 91.3117 163.992 91.3003C163.992 91.2888 163.996 91.2755 163.996 91.2602C163.994 91.2164 163.977 91.1668 163.969 91.123C163.956 91.0276 163.942 90.9361 163.917 90.8446C163.896 90.7855 163.873 90.7264 163.844 90.6673C163.808 90.5872 163.773 90.511 163.725 90.4385C163.689 90.3813 163.648 90.328 163.606 90.2784C163.552 90.2136 163.493 90.1526 163.429 90.0935C163.381 90.0496 163.325 90.0077 163.27 89.9676C163.231 89.9448 163.204 89.9104 163.162 89.8857C163.123 89.8647 163.083 89.8532 163.043 89.838C163.006 89.8189 162.985 89.796 162.948 89.7827L123.343 70.7599C123.185 70.695 123.016 70.6874 122.849 70.6703V20.7148C122.849 20.7015 122.845 20.6862 122.845 20.6729C122.843 20.6595 122.847 20.6481 122.847 20.6347C122.845 20.5871 122.824 20.5413 122.818 20.4956C122.804 20.4022 122.791 20.3087 122.766 20.2191C122.747 20.1581 122.72 20.099 122.693 20.0418C122.654 19.9618 122.624 19.8836 122.574 19.8131C122.535 19.7559 122.495 19.7044 122.455 19.6529C122.401 19.5881 122.343 19.5252 122.28 19.468C122.232 19.4241 122.174 19.3822 122.12 19.3441C122.08 19.3174 122.053 19.2831 122.012 19.2583C121.972 19.2373 121.932 19.2278 121.893 19.2087C121.857 19.1915 121.834 19.1687 121.801 19.1572L82.2067 0.134392C81.7453 -0.0600684 81.2224 -0.0429101 80.7726 0.182054L41.6282 20.4193C41.0534 20.7072 40.692 21.2887 40.6881 21.9254C40.6881 21.9369 40.692 21.9464 40.692 21.9559C40.6209 22.1447 40.5709 22.341 40.5709 22.5508L40.7977 70.6569C40.5939 70.6779 40.3883 70.7141 40.1999 70.8075L1.05541 91.0448C0.482559 91.3308 0.119238 91.9141 0.115394 92.5528C0.115394 92.5624 0.121161 92.57 0.121161 92.5814C0.0481119 92.7682 -0.00186875 92.9684 5.35827e-05 93.1781ZM117.199 20.9036L82.6949 40.037L46.161 21.954L81.605 3.56415L117.199 20.9036ZM119.438 70.5559L84.425 88.8314V42.9634L119.438 23.5555V70.5559ZM125.567 113.589L160.58 94.1829V140.615L125.567 159.457V113.589ZM87.3047 92.5776L122.749 74.1877L158.341 91.5348L123.839 110.662L87.3047 92.5776ZM43.8504 113.589L78.8657 94.1848V140.617L43.8504 159.457V113.589ZM5.5902 92.5776L41.0342 74.1877L76.6261 91.5348L42.1222 110.662L5.5902 92.5776Z" fill="#F0F0F0"/>
</svg>
